<svg width="1058" height="832" xmlns="http://www.w3.org/2000/svg" xmlns:xlink="http://www.w3.org/1999/xlink" overflow="hidden"><g><rect x="0" y="0" width="1058" height="831.762" fill="#FFFFFF"/><rect x="798" y="551.505" width="114" height="209.192" stroke="#172C51" stroke-width="1.99937" stroke-miterlimit="8" fill="#C5E0B4"/><rect x="166" y="549.503" width="378" height="214.196" stroke="#172C51" stroke-width="1.99937" stroke-miterlimit="8" fill="#8FAADC"/><rect x="799" y="82.0751" width="114" height="378.346" stroke="#172C51" stroke-width="1.99937" stroke-miterlimit="8" fill="#C9C9C9"/><rect x="198" y="549.503" width="39" height="214.196" stroke="#172C51" stroke-width="1.99937" stroke-miterlimit="8" fill="#FF0000"/><rect x="799" y="115.105" width="114" height="36.033" stroke="#172C51" stroke-width="1.99937" stroke-miterlimit="8" fill="#FF0000"/><path d="M544 763.699C544 771.162 542.993 777.212 541.75 777.212L358.27 777.212C357.028 777.212 356.02 783.261 356.02 790.724 356.02 783.261 355.013 777.212 353.77 777.212L168.25 777.212C167.007 777.212 166 771.162 166 763.699" stroke="#000000" stroke-width="2.0012" stroke-miterlimit="8" fill="none" fill-rule="evenodd"/><path d="M198 548.502C198 540.763 199.045 534.49 200.333 534.49L215.167 534.49C216.455 534.49 217.5 528.216 217.5 520.477 217.5 528.216 218.545 534.49 219.833 534.49L234.667 534.49C235.955 534.49 237 540.763 237 548.502" stroke="#000000" stroke-width="2.0012" stroke-miterlimit="8" fill="none" fill-rule="evenodd"/><text font-family="Cambria Math,Cambria Math_MSFontService,sans-serif" font-weight="400" font-size="24.0144" transform="matrix(1 0 0 1.00092 168.887 520)">𝐵𝐾</text><text font-family="Cambria Math,Cambria Math_MSFontService,sans-serif" font-weight="400" font-size="24.0144" transform="matrix(1 0 0 1.00092 208.934 520)">=</text><text font-family="Cambria Math,Cambria Math_MSFontService,sans-serif" font-weight="400" font-size="24.0144" transform="matrix(1 0 0 1.00092 233.593 520)">16</text><text font-family="Cambria Math,Cambria Math_MSFontService,sans-serif" font-weight="400" font-size="24.0144" transform="matrix(1 0 0 1.00092 347.09 812)">𝐾</text><path d="M166 763.699C157.163 763.699 150 762.504 150 761.03L150 659.27C150 657.796 142.837 656.601 134 656.601 142.837 656.601 150 655.406 150 653.932L150 552.172C150 550.698 157.163 549.503 166 549.503" stroke="#000000" stroke-width="1.99937" stroke-miterlimit="8" fill="none" fill-rule="evenodd"/><text font-family="Cambria Math,Cambria Math_MSFontService,sans-serif" font-weight="400" font-size="24.0144" transform="matrix(1 0 0 1.00092 21.7448 666)">𝐵𝑀</text><text font-family="Cambria Math,Cambria Math_MSFontService,sans-serif" font-weight="400" font-size="24.0144" transform="matrix(1 0 0 1.00092 65.3177 666)">=</text><text font-family="Cambria Math,Cambria Math_MSFontService,sans-serif" font-weight="400" font-size="24.0144" transform="matrix(1 0 0 1.00092 89.9766 666)">256</text><path d="M912 82.0752C921.665 82.0752 929.5 83.3821 929.5 84.9944L929.5 267.829C929.5 269.441 937.335 270.748 947 270.748 937.335 270.748 929.5 272.055 929.5 273.667L929.5 456.501C929.5 458.114 921.665 459.421 912 459.421" stroke="#000000" stroke-width="1.99937" stroke-miterlimit="8" fill="none" fill-rule="evenodd"/><text font-family="Cambria Math,Cambria Math_MSFontService,sans-serif" font-weight="400" font-size="24.0144" transform="matrix(1 0 0 1.00092 948.473 280)">𝐾</text><path d="M798 151.138C788.335 151.138 780.5 149.831 780.5 148.219L780.5 136.041C780.5 134.429 772.665 133.122 763 133.122 772.665 133.122 780.5 131.815 780.5 130.203L780.5 118.025C780.5 116.412 788.335 115.105 798 115.105" stroke="#000000" stroke-width="1.99937" stroke-miterlimit="8" fill="none" fill-rule="evenodd"/><text font-family="Cambria Math,Cambria Math_MSFontService,sans-serif" font-weight="400" font-size="24.0144" transform="matrix(1 0 0 1.00092 669.855 143)">𝐵𝐾</text><text font-family="Cambria Math,Cambria Math_MSFontService,sans-serif" font-weight="400" font-size="24.0144" transform="matrix(1 0 0 1.00092 709.902 143)">=</text><text font-family="Cambria Math,Cambria Math_MSFontService,sans-serif" font-weight="400" font-size="24.0144" transform="matrix(1 0 0 1.00092 734.561 143)">16</text><path d="M799 81.0742C799 71.9532 800.231 64.5591 801.75 64.5591L853.25 64.5591C854.769 64.5591 856 57.165 856 48.044 856 57.165 857.231 64.5591 858.75 64.5591L910.25 64.5591C911.769 64.5591 913 71.9532 913 81.0742" stroke="#000000" stroke-width="2.0012" stroke-miterlimit="8" fill="none" fill-rule="evenodd"/><path d="M912 759.696C912 767.988 910.881 774.71 909.5 774.71L857.808 774.709C856.427 774.709 855.308 781.431 855.308 789.723 855.308 781.431 854.189 774.709 852.808 774.709L800.5 774.709C799.119 774.709 798 767.987 798 759.696" stroke="#000000" stroke-width="2.0012" stroke-miterlimit="8" fill="none" fill-rule="evenodd"/><text font-family="Cambria Math,Cambria Math_MSFontService,sans-serif" font-weight="400" font-size="24.0144" transform="matrix(1 0 0 1.00092 839.215 812)">𝐵𝑁</text><text font-family="Cambria Math,Cambria Math_MSFontService,sans-serif" font-weight="400" font-size="24.0144" transform="matrix(1 0 0 1.00092 806.383 42)">𝐵</text><text font-family="Cambria Math,Cambria Math_MSFontService,sans-serif" font-weight="400" font-size="24.0144" transform="matrix(1 0 0 1.00092 822.211 42)">𝑁</text><text font-family="Cambria Math,Cambria Math_MSFontService,sans-serif" font-weight="400" font-size="24.0144" transform="matrix(1 0 0 1.00092 846.957 42)">=</text><text font-family="Cambria Math,Cambria Math_MSFontService,sans-serif" font-weight="400" font-size="24.0144" transform="matrix(1 0 0 1.00092 871.615 42)">128</text><path d="M0 0 746.313 0.152288" stroke="#000000" stroke-width="1.33291" stroke-miterlimit="8" stroke-dasharray="5.33165 3.99874" fill="none" fill-rule="evenodd" transform="matrix(1 0 0 -1.00092 166.5 657.254)"/><path d="M0 0 746.313 0.152288" stroke="#000000" stroke-width="1.33291" stroke-miterlimit="8" stroke-dasharray="5.33165 3.99874" fill="none" fill-rule="evenodd" transform="matrix(1 0 0 -1.00092 167.5 605.207)"/><path d="M0 0 746.313 0.152288" stroke="#000000" stroke-width="1.33291" stroke-miterlimit="8" stroke-dasharray="5.33165 3.99874" fill="none" fill-rule="evenodd" transform="matrix(1 0 0 -1.00092 165.5 706.299)"/><path d="M0 0 0.987511 678.316" stroke="#000000" stroke-width="1.33291" stroke-miterlimit="8" stroke-dasharray="5.33165 3.99874" fill="none" fill-rule="evenodd" transform="matrix(1 0 0 -1.00092 855.5 761.513)"/><text font-family="Cambria Math,Cambria Math_MSFontService,sans-serif" font-weight="400" font-size="32.0192" transform="matrix(1 0 0 1.00092 815.639 591)">0</text><text font-family="Cambria Math,Cambria Math_MSFontService,sans-serif" font-weight="400" font-size="32.0192" transform="matrix(1 0 0 1.00092 815.639 640)">1</text><text font-family="Cambria Math,Cambria Math_MSFontService,sans-serif" font-weight="400" font-size="32.0192" transform="matrix(1 0 0 1.00092 815.639 690)">2</text><text font-family="Cambria Math,Cambria Math_MSFontService,sans-serif" font-weight="400" font-size="32.0192" transform="matrix(1 0 0 1.00092 815.639 744)">3</text><text font-family="Cambria Math,Cambria Math_MSFontService,sans-serif" font-weight="400" font-size="32.0192" transform="matrix(1 0 0 1.00092 872.783 591)">4</text><text font-family="Cambria Math,Cambria Math_MSFontService,sans-serif" font-weight="400" font-size="32.0192" transform="matrix(1 0 0 1.00092 872.783 640)">5</text><text font-family="Cambria Math,Cambria Math_MSFontService,sans-serif" font-weight="400" font-size="32.0192" transform="matrix(1 0 0 1.00092 872.783 690)">6</text><text font-family="Cambria Math,Cambria Math_MSFontService,sans-serif" font-weight="400" font-size="32.0192" transform="matrix(1 0 0 1.00092 872.783 744)">7</text><path d="M913 551.505C921.284 551.505 928 552.625 928 554.007L928 652.536C928 653.918 934.716 655.038 943 655.038 934.716 655.038 928 656.159 928 657.54L928 757.193C928 758.575 921.284 759.696 913 759.696" stroke="#000000" stroke-width="1.99937" stroke-miterlimit="8" fill="none" fill-rule="evenodd"/><text font-family="Cambria Math,Cambria Math_MSFontService,sans-serif" font-weight="400" font-size="24.0144" transform="matrix(1 0 0 1.00092 948.07 665)">𝐵𝑀</text><text font-family="Cambria Math,Cambria Math_MSFontService,sans-serif" font-weight="400" font-size="32.0192" transform="matrix(1 0 0 1.00092 313.684 668)">𝑇𝑖𝑙𝑒</text><text font-family="Cambria Math,Cambria Math_MSFontService,sans-serif" font-weight="400" font-size="32.0192" transform="matrix(1 0 0 1.00092 369.533 668)">_</text><text font-family="Cambria Math,Cambria Math_MSFontService,sans-serif" font-weight="400" font-size="32.0192" transform="matrix(1 0 0 1.00092 381.363 668)">𝐴</text><text font-family="Cambria Math,Cambria Math_MSFontService,sans-serif" font-weight="400" font-size="32.0192" transform="matrix(1 0 0 1.00092 813.001 287)">𝑇𝑖𝑙𝑒</text><text font-family="Cambria Math,Cambria Math_MSFontService,sans-serif" font-weight="400" font-size="32.0192" transform="matrix(1 0 0 1.00092 868.85 287)">_</text><text font-family="Cambria Math,Cambria Math_MSFontService,sans-serif" font-weight="400" font-size="32.0192" transform="matrix(1 0 0 1.00092 880.679 287)">𝐵</text><text font-family="Cambria Math,Cambria Math_MSFontService,sans-serif" font-weight="400" font-size="32.0192" transform="matrix(1 0 0 1.00092 943.11 601)">𝑇𝑖𝑙𝑒</text><text font-family="Cambria Math,Cambria Math_MSFontService,sans-serif" font-weight="400" font-size="32.0192" transform="matrix(1 0 0 1.00092 998.959 601)">_</text><text font-family="Cambria Math,Cambria Math_MSFontService,sans-serif" font-weight="400" font-size="32.0192" transform="matrix(1 0 0 1.00092 1010.79 601)">𝐶</text></g></svg>